<mxfile host="app.diagrams.net" modified="2023-05-23T10:57:18.246Z" agent="Mozilla/5.0 (Windows NT 10.0; Win64; x64) AppleWebKit/537.36 (KHTML, like Gecko) Chrome/110.0.0.0 YaBrowser/23.3.3.719 Yowser/2.5 Safari/537.36" etag="J5cJJ5fKBlZ7Z89ySDpV" version="21.3.0" type="device">
  <diagram name="Страница 1" id="PXF8gYfuSEdTyaRWxLsL">
    <mxGraphModel dx="1631" dy="1342" grid="0" gridSize="10" guides="1" tooltips="1" connect="1" arrows="1" fold="1" page="0" pageScale="1" pageWidth="827" pageHeight="1169" math="0" shadow="0">
      <root>
        <mxCell id="0" />
        <mxCell id="1" parent="0" />
        <mxCell id="lPxlCy3dPTvAVLmnzLPC-1" value="log_in_for_admin" style="swimlane;fontStyle=0;childLayout=stackLayout;horizontal=1;startSize=26;horizontalStack=0;resizeParent=1;resizeParentMax=0;resizeLast=0;collapsible=1;marginBottom=0;align=center;fontSize=14;" parent="1" vertex="1">
          <mxGeometry x="1230" y="100" width="160" height="86" as="geometry" />
        </mxCell>
        <mxCell id="lPxlCy3dPTvAVLmnzLPC-2" value="Логин" style="text;strokeColor=none;fillColor=none;spacingLeft=4;spacingRight=4;overflow=hidden;rotatable=0;points=[[0,0.5],[1,0.5]];portConstraint=eastwest;fontSize=12;whiteSpace=wrap;html=1;" parent="lPxlCy3dPTvAVLmnzLPC-1" vertex="1">
          <mxGeometry y="26" width="160" height="30" as="geometry" />
        </mxCell>
        <mxCell id="lPxlCy3dPTvAVLmnzLPC-5" style="edgeStyle=orthogonalEdgeStyle;rounded=0;orthogonalLoop=1;jettySize=auto;html=1;" parent="lPxlCy3dPTvAVLmnzLPC-1" source="lPxlCy3dPTvAVLmnzLPC-3" edge="1">
          <mxGeometry relative="1" as="geometry">
            <mxPoint x="260" y="71" as="targetPoint" />
          </mxGeometry>
        </mxCell>
        <mxCell id="lPxlCy3dPTvAVLmnzLPC-3" value="Пароль" style="text;strokeColor=none;fillColor=none;spacingLeft=4;spacingRight=4;overflow=hidden;rotatable=0;points=[[0,0.5],[1,0.5]];portConstraint=eastwest;fontSize=12;whiteSpace=wrap;html=1;" parent="lPxlCy3dPTvAVLmnzLPC-1" vertex="1">
          <mxGeometry y="56" width="160" height="30" as="geometry" />
        </mxCell>
        <mxCell id="lPxlCy3dPTvAVLmnzLPC-6" value="groups_control" style="swimlane;fontStyle=0;childLayout=stackLayout;horizontal=1;startSize=26;horizontalStack=0;resizeParent=1;resizeParentMax=0;resizeLast=0;collapsible=1;marginBottom=0;align=center;fontSize=14;" parent="1" vertex="1">
          <mxGeometry x="1490" y="120" width="160" height="210" as="geometry" />
        </mxCell>
        <mxCell id="lPxlCy3dPTvAVLmnzLPC-7" value="Посмотреть группы" style="text;strokeColor=none;fillColor=none;spacingLeft=4;spacingRight=4;overflow=hidden;rotatable=0;points=[[0,0.5],[1,0.5]];portConstraint=eastwest;fontSize=12;whiteSpace=wrap;html=1;" parent="lPxlCy3dPTvAVLmnzLPC-6" vertex="1">
          <mxGeometry y="26" width="160" height="30" as="geometry" />
        </mxCell>
        <mxCell id="lPxlCy3dPTvAVLmnzLPC-9" value="Редактировать группы" style="text;strokeColor=none;fillColor=none;spacingLeft=4;spacingRight=4;overflow=hidden;rotatable=0;points=[[0,0.5],[1,0.5]];portConstraint=eastwest;fontSize=12;whiteSpace=wrap;html=1;" parent="lPxlCy3dPTvAVLmnzLPC-6" vertex="1">
          <mxGeometry y="56" width="160" height="30" as="geometry" />
        </mxCell>
        <mxCell id="lPxlCy3dPTvAVLmnzLPC-10" value="Удалить группу&lt;br&gt;&lt;br&gt;Добавить группу&lt;br&gt;&lt;br&gt;Показывать/ не показывать оценки по дисциплинам&lt;br&gt;" style="text;strokeColor=none;fillColor=none;spacingLeft=4;spacingRight=4;overflow=hidden;rotatable=0;points=[[0,0.5],[1,0.5]];portConstraint=eastwest;fontSize=12;whiteSpace=wrap;html=1;" parent="lPxlCy3dPTvAVLmnzLPC-6" vertex="1">
          <mxGeometry y="86" width="160" height="124" as="geometry" />
        </mxCell>
        <mxCell id="lPxlCy3dPTvAVLmnzLPC-15" value="group" style="swimlane;fontStyle=0;childLayout=stackLayout;horizontal=1;startSize=26;horizontalStack=0;resizeParent=1;resizeParentMax=0;resizeLast=0;collapsible=1;marginBottom=0;align=center;fontSize=14;" parent="1" vertex="1">
          <mxGeometry x="1340" y="540" width="160" height="150" as="geometry" />
        </mxCell>
        <mxCell id="lPxlCy3dPTvAVLmnzLPC-16" value="Посмотреть участников" style="text;strokeColor=none;fillColor=none;spacingLeft=4;spacingRight=4;overflow=hidden;rotatable=0;points=[[0,0.5],[1,0.5]];portConstraint=eastwest;fontSize=12;whiteSpace=wrap;html=1;" parent="lPxlCy3dPTvAVLmnzLPC-15" vertex="1">
          <mxGeometry y="26" width="160" height="30" as="geometry" />
        </mxCell>
        <mxCell id="lPxlCy3dPTvAVLmnzLPC-17" style="edgeStyle=orthogonalEdgeStyle;rounded=0;orthogonalLoop=1;jettySize=auto;html=1;" parent="lPxlCy3dPTvAVLmnzLPC-15" source="lPxlCy3dPTvAVLmnzLPC-18" edge="1">
          <mxGeometry relative="1" as="geometry">
            <mxPoint x="240" y="71" as="targetPoint" />
          </mxGeometry>
        </mxCell>
        <mxCell id="lPxlCy3dPTvAVLmnzLPC-18" value="Редактировать участников" style="text;strokeColor=none;fillColor=none;spacingLeft=4;spacingRight=4;overflow=hidden;rotatable=0;points=[[0,0.5],[1,0.5]];portConstraint=eastwest;fontSize=12;whiteSpace=wrap;html=1;" parent="lPxlCy3dPTvAVLmnzLPC-15" vertex="1">
          <mxGeometry y="56" width="160" height="30" as="geometry" />
        </mxCell>
        <mxCell id="lPxlCy3dPTvAVLmnzLPC-19" value="Добавить участников&lt;br&gt;&lt;br&gt;Удалить участников" style="text;strokeColor=none;fillColor=none;spacingLeft=4;spacingRight=4;overflow=hidden;rotatable=0;points=[[0,0.5],[1,0.5]];portConstraint=eastwest;fontSize=12;whiteSpace=wrap;html=1;" parent="lPxlCy3dPTvAVLmnzLPC-15" vertex="1">
          <mxGeometry y="86" width="160" height="64" as="geometry" />
        </mxCell>
        <mxCell id="lPxlCy3dPTvAVLmnzLPC-20" value="member" style="swimlane;fontStyle=0;childLayout=stackLayout;horizontal=1;startSize=26;horizontalStack=0;resizeParent=1;resizeParentMax=0;resizeLast=0;collapsible=1;marginBottom=0;align=center;fontSize=14;" parent="1" vertex="1">
          <mxGeometry x="1580" y="430" width="170" height="290" as="geometry" />
        </mxCell>
        <mxCell id="lPxlCy3dPTvAVLmnzLPC-21" value="Посмотреть дисциплины" style="text;strokeColor=none;fillColor=none;spacingLeft=4;spacingRight=4;overflow=hidden;rotatable=0;points=[[0,0.5],[1,0.5]];portConstraint=eastwest;fontSize=12;whiteSpace=wrap;html=1;" parent="lPxlCy3dPTvAVLmnzLPC-20" vertex="1">
          <mxGeometry y="26" width="170" height="30" as="geometry" />
        </mxCell>
        <mxCell id="lPxlCy3dPTvAVLmnzLPC-23" value="Посмотреть оценки" style="text;strokeColor=none;fillColor=none;spacingLeft=4;spacingRight=4;overflow=hidden;rotatable=0;points=[[0,0.5],[1,0.5]];portConstraint=eastwest;fontSize=12;whiteSpace=wrap;html=1;" parent="lPxlCy3dPTvAVLmnzLPC-20" vertex="1">
          <mxGeometry y="56" width="170" height="30" as="geometry" />
        </mxCell>
        <mxCell id="lPxlCy3dPTvAVLmnzLPC-24" value="Редактировать дисциплину&lt;br&gt;&lt;br&gt;Редактировать оценки&lt;br&gt;&lt;br&gt;Удалить дисциплину&lt;br style=&quot;border-color: var(--border-color);&quot;&gt;&lt;br style=&quot;border-color: var(--border-color);&quot;&gt;Удалить оценки&lt;br&gt;&lt;br&gt;Добавить дисциплину&lt;br&gt;&lt;br&gt;Добавить оценку" style="text;strokeColor=none;fillColor=none;spacingLeft=4;spacingRight=4;overflow=hidden;rotatable=0;points=[[0,0.5],[1,0.5]];portConstraint=eastwest;fontSize=12;whiteSpace=wrap;html=1;" parent="lPxlCy3dPTvAVLmnzLPC-20" vertex="1">
          <mxGeometry y="86" width="170" height="204" as="geometry" />
        </mxCell>
        <mxCell id="lPxlCy3dPTvAVLmnzLPC-14" style="edgeStyle=orthogonalEdgeStyle;rounded=0;orthogonalLoop=1;jettySize=auto;html=1;entryX=0.544;entryY=-0.033;entryDx=0;entryDy=0;entryPerimeter=0;" parent="1" source="lPxlCy3dPTvAVLmnzLPC-9" target="lPxlCy3dPTvAVLmnzLPC-15" edge="1">
          <mxGeometry relative="1" as="geometry">
            <mxPoint x="1580" y="181" as="targetPoint" />
          </mxGeometry>
        </mxCell>
        <mxCell id="kJwidPcrHj46GqBheQo3-1" value="mark" style="swimlane;fontStyle=0;childLayout=stackLayout;horizontal=1;startSize=26;horizontalStack=0;resizeParent=1;resizeParentMax=0;resizeLast=0;collapsible=1;marginBottom=0;align=center;fontSize=14;" vertex="1" parent="1">
          <mxGeometry x="80" y="439" width="160" height="120" as="geometry" />
        </mxCell>
        <mxCell id="kJwidPcrHj46GqBheQo3-2" value="id" style="text;strokeColor=none;fillColor=none;spacingLeft=4;spacingRight=4;overflow=hidden;rotatable=0;points=[[0,0.5],[1,0.5]];portConstraint=eastwest;fontSize=12;whiteSpace=wrap;html=1;" vertex="1" parent="kJwidPcrHj46GqBheQo3-1">
          <mxGeometry y="26" width="160" height="30" as="geometry" />
        </mxCell>
        <mxCell id="kJwidPcrHj46GqBheQo3-4" value="value&lt;br&gt;&lt;br&gt;student_id&lt;br&gt;task_id" style="text;strokeColor=none;fillColor=none;spacingLeft=4;spacingRight=4;overflow=hidden;rotatable=0;points=[[0,0.5],[1,0.5]];portConstraint=eastwest;fontSize=12;whiteSpace=wrap;html=1;" vertex="1" parent="kJwidPcrHj46GqBheQo3-1">
          <mxGeometry y="56" width="160" height="64" as="geometry" />
        </mxCell>
        <mxCell id="kJwidPcrHj46GqBheQo3-6" value="group" style="swimlane;fontStyle=0;childLayout=stackLayout;horizontal=1;startSize=26;horizontalStack=0;resizeParent=1;resizeParentMax=0;resizeLast=0;collapsible=1;marginBottom=0;align=center;fontSize=14;" vertex="1" parent="1">
          <mxGeometry x="1190" y="240" width="160" height="150" as="geometry" />
        </mxCell>
        <mxCell id="kJwidPcrHj46GqBheQo3-7" value="Посмотреть участников" style="text;strokeColor=none;fillColor=none;spacingLeft=4;spacingRight=4;overflow=hidden;rotatable=0;points=[[0,0.5],[1,0.5]];portConstraint=eastwest;fontSize=12;whiteSpace=wrap;html=1;" vertex="1" parent="kJwidPcrHj46GqBheQo3-6">
          <mxGeometry y="26" width="160" height="30" as="geometry" />
        </mxCell>
        <mxCell id="kJwidPcrHj46GqBheQo3-8" style="edgeStyle=orthogonalEdgeStyle;rounded=0;orthogonalLoop=1;jettySize=auto;html=1;" edge="1" parent="kJwidPcrHj46GqBheQo3-6" source="kJwidPcrHj46GqBheQo3-9">
          <mxGeometry relative="1" as="geometry">
            <mxPoint x="240" y="71" as="targetPoint" />
          </mxGeometry>
        </mxCell>
        <mxCell id="kJwidPcrHj46GqBheQo3-9" value="Редактировать участников" style="text;strokeColor=none;fillColor=none;spacingLeft=4;spacingRight=4;overflow=hidden;rotatable=0;points=[[0,0.5],[1,0.5]];portConstraint=eastwest;fontSize=12;whiteSpace=wrap;html=1;" vertex="1" parent="kJwidPcrHj46GqBheQo3-6">
          <mxGeometry y="56" width="160" height="30" as="geometry" />
        </mxCell>
        <mxCell id="kJwidPcrHj46GqBheQo3-10" value="Добавить участников&lt;br&gt;&lt;br&gt;Удалить участников" style="text;strokeColor=none;fillColor=none;spacingLeft=4;spacingRight=4;overflow=hidden;rotatable=0;points=[[0,0.5],[1,0.5]];portConstraint=eastwest;fontSize=12;whiteSpace=wrap;html=1;" vertex="1" parent="kJwidPcrHj46GqBheQo3-6">
          <mxGeometry y="86" width="160" height="64" as="geometry" />
        </mxCell>
        <mxCell id="kJwidPcrHj46GqBheQo3-11" value="Переделать данные схемы не действия а значения описываются&lt;br&gt;&lt;br&gt;описание сущности&lt;br&gt;" style="text;html=1;strokeColor=none;fillColor=none;align=center;verticalAlign=middle;whiteSpace=wrap;rounded=0;" vertex="1" parent="1">
          <mxGeometry x="1160" y="20" width="60" height="30" as="geometry" />
        </mxCell>
        <mxCell id="kJwidPcrHj46GqBheQo3-13" value="student" style="swimlane;fontStyle=0;childLayout=stackLayout;horizontal=1;startSize=26;horizontalStack=0;resizeParent=1;resizeParentMax=0;resizeLast=0;collapsible=1;marginBottom=0;align=center;fontSize=14;" vertex="1" parent="1">
          <mxGeometry x="80" y="710" width="160" height="146" as="geometry" />
        </mxCell>
        <mxCell id="kJwidPcrHj46GqBheQo3-14" value="id" style="text;strokeColor=none;fillColor=none;spacingLeft=4;spacingRight=4;overflow=hidden;rotatable=0;points=[[0,0.5],[1,0.5]];portConstraint=eastwest;fontSize=12;whiteSpace=wrap;html=1;" vertex="1" parent="kJwidPcrHj46GqBheQo3-13">
          <mxGeometry y="26" width="160" height="30" as="geometry" />
        </mxCell>
        <mxCell id="kJwidPcrHj46GqBheQo3-16" value="name" style="text;strokeColor=none;fillColor=none;spacingLeft=4;spacingRight=4;overflow=hidden;rotatable=0;points=[[0,0.5],[1,0.5]];portConstraint=eastwest;fontSize=12;whiteSpace=wrap;html=1;" vertex="1" parent="kJwidPcrHj46GqBheQo3-13">
          <mxGeometry y="56" width="160" height="30" as="geometry" />
        </mxCell>
        <mxCell id="kJwidPcrHj46GqBheQo3-23" value="group_id" style="text;strokeColor=none;fillColor=none;spacingLeft=4;spacingRight=4;overflow=hidden;rotatable=0;points=[[0,0.5],[1,0.5]];portConstraint=eastwest;fontSize=12;whiteSpace=wrap;html=1;" vertex="1" parent="kJwidPcrHj46GqBheQo3-13">
          <mxGeometry y="86" width="160" height="30" as="geometry" />
        </mxCell>
        <mxCell id="kJwidPcrHj46GqBheQo3-24" value="discipline_id" style="text;strokeColor=none;fillColor=none;spacingLeft=4;spacingRight=4;overflow=hidden;rotatable=0;points=[[0,0.5],[1,0.5]];portConstraint=eastwest;fontSize=12;whiteSpace=wrap;html=1;" vertex="1" parent="kJwidPcrHj46GqBheQo3-13">
          <mxGeometry y="116" width="160" height="30" as="geometry" />
        </mxCell>
        <mxCell id="kJwidPcrHj46GqBheQo3-19" value="group" style="swimlane;fontStyle=0;childLayout=stackLayout;horizontal=1;startSize=26;horizontalStack=0;resizeParent=1;resizeParentMax=0;resizeLast=0;collapsible=1;marginBottom=0;align=center;fontSize=14;" vertex="1" parent="1">
          <mxGeometry x="320" y="650" width="160" height="160" as="geometry" />
        </mxCell>
        <mxCell id="kJwidPcrHj46GqBheQo3-21" value="id&amp;nbsp;" style="text;strokeColor=none;fillColor=none;spacingLeft=4;spacingRight=4;overflow=hidden;rotatable=0;points=[[0,0.5],[1,0.5]];portConstraint=eastwest;fontSize=12;whiteSpace=wrap;html=1;" vertex="1" parent="kJwidPcrHj46GqBheQo3-19">
          <mxGeometry y="26" width="160" height="30" as="geometry" />
        </mxCell>
        <mxCell id="kJwidPcrHj46GqBheQo3-22" value="name&lt;br&gt;" style="text;strokeColor=none;fillColor=none;spacingLeft=4;spacingRight=4;overflow=hidden;rotatable=0;points=[[0,0.5],[1,0.5]];portConstraint=eastwest;fontSize=12;whiteSpace=wrap;html=1;" vertex="1" parent="kJwidPcrHj46GqBheQo3-19">
          <mxGeometry y="56" width="160" height="30" as="geometry" />
        </mxCell>
        <mxCell id="kJwidPcrHj46GqBheQo3-114" value="description&lt;br&gt;" style="text;strokeColor=none;fillColor=none;spacingLeft=4;spacingRight=4;overflow=hidden;rotatable=0;points=[[0,0.5],[1,0.5]];portConstraint=eastwest;fontSize=12;whiteSpace=wrap;html=1;" vertex="1" parent="kJwidPcrHj46GqBheQo3-19">
          <mxGeometry y="86" width="160" height="30" as="geometry" />
        </mxCell>
        <mxCell id="kJwidPcrHj46GqBheQo3-121" value="Количество участников их список&lt;br&gt;" style="text;strokeColor=none;fillColor=none;spacingLeft=4;spacingRight=4;overflow=hidden;rotatable=0;points=[[0,0.5],[1,0.5]];portConstraint=eastwest;fontSize=12;whiteSpace=wrap;html=1;" vertex="1" parent="kJwidPcrHj46GqBheQo3-19">
          <mxGeometry y="116" width="160" height="44" as="geometry" />
        </mxCell>
        <mxCell id="kJwidPcrHj46GqBheQo3-25" value="discipline" style="swimlane;fontStyle=0;childLayout=stackLayout;horizontal=1;startSize=26;horizontalStack=0;resizeParent=1;resizeParentMax=0;resizeLast=0;collapsible=1;marginBottom=0;align=center;fontSize=14;" vertex="1" parent="1">
          <mxGeometry x="590" y="650" width="160" height="116" as="geometry" />
        </mxCell>
        <mxCell id="kJwidPcrHj46GqBheQo3-27" value="id&amp;nbsp;" style="text;strokeColor=none;fillColor=none;spacingLeft=4;spacingRight=4;overflow=hidden;rotatable=0;points=[[0,0.5],[1,0.5]];portConstraint=eastwest;fontSize=12;whiteSpace=wrap;html=1;" vertex="1" parent="kJwidPcrHj46GqBheQo3-25">
          <mxGeometry y="26" width="160" height="30" as="geometry" />
        </mxCell>
        <mxCell id="kJwidPcrHj46GqBheQo3-115" value="name&lt;br&gt;" style="text;strokeColor=none;fillColor=none;spacingLeft=4;spacingRight=4;overflow=hidden;rotatable=0;points=[[0,0.5],[1,0.5]];portConstraint=eastwest;fontSize=12;whiteSpace=wrap;html=1;" vertex="1" parent="kJwidPcrHj46GqBheQo3-25">
          <mxGeometry y="56" width="160" height="30" as="geometry" />
        </mxCell>
        <mxCell id="kJwidPcrHj46GqBheQo3-28" value="description" style="text;strokeColor=none;fillColor=none;spacingLeft=4;spacingRight=4;overflow=hidden;rotatable=0;points=[[0,0.5],[1,0.5]];portConstraint=eastwest;fontSize=12;whiteSpace=wrap;html=1;" vertex="1" parent="kJwidPcrHj46GqBheQo3-25">
          <mxGeometry y="86" width="160" height="30" as="geometry" />
        </mxCell>
        <mxCell id="kJwidPcrHj46GqBheQo3-30" value="" style="edgeStyle=entityRelationEdgeStyle;fontSize=12;html=1;endArrow=ERoneToMany;rounded=0;exitX=0.995;exitY=0.118;exitDx=0;exitDy=0;exitPerimeter=0;" edge="1" parent="1" source="kJwidPcrHj46GqBheQo3-13" target="kJwidPcrHj46GqBheQo3-4">
          <mxGeometry width="100" height="100" relative="1" as="geometry">
            <mxPoint x="150" y="760" as="sourcePoint" />
            <mxPoint x="40" y="850" as="targetPoint" />
          </mxGeometry>
        </mxCell>
        <mxCell id="kJwidPcrHj46GqBheQo3-31" value="" style="edgeStyle=elbowEdgeStyle;fontSize=12;html=1;endArrow=ERoneToMany;rounded=0;exitX=0;exitY=0.5;exitDx=0;exitDy=0;entryX=1;entryY=0.5;entryDx=0;entryDy=0;" edge="1" parent="1" source="kJwidPcrHj46GqBheQo3-22" target="kJwidPcrHj46GqBheQo3-23">
          <mxGeometry width="100" height="100" relative="1" as="geometry">
            <mxPoint x="430" y="490" as="sourcePoint" />
            <mxPoint x="240" y="749" as="targetPoint" />
            <Array as="points">
              <mxPoint x="290" y="750" />
            </Array>
          </mxGeometry>
        </mxCell>
        <mxCell id="kJwidPcrHj46GqBheQo3-34" value="" style="edgeStyle=elbowEdgeStyle;fontSize=12;html=1;endArrow=ERmany;startArrow=ERmany;rounded=0;entryX=0;entryY=0.5;entryDx=0;entryDy=0;exitX=1;exitY=0.5;exitDx=0;exitDy=0;" edge="1" parent="1" source="kJwidPcrHj46GqBheQo3-22" target="kJwidPcrHj46GqBheQo3-115">
          <mxGeometry width="100" height="100" relative="1" as="geometry">
            <mxPoint x="380" y="460" as="sourcePoint" />
            <mxPoint x="480" y="360" as="targetPoint" />
          </mxGeometry>
        </mxCell>
        <mxCell id="kJwidPcrHj46GqBheQo3-35" value="textblock_group" style="swimlane;fontStyle=0;childLayout=stackLayout;horizontal=1;startSize=26;horizontalStack=0;resizeParent=1;resizeParentMax=0;resizeLast=0;collapsible=1;marginBottom=0;align=center;fontSize=14;" vertex="1" parent="1">
          <mxGeometry x="590" y="439" width="160" height="146" as="geometry" />
        </mxCell>
        <mxCell id="kJwidPcrHj46GqBheQo3-36" value="id&amp;nbsp;" style="text;strokeColor=none;fillColor=none;spacingLeft=4;spacingRight=4;overflow=hidden;rotatable=0;points=[[0,0.5],[1,0.5]];portConstraint=eastwest;fontSize=12;whiteSpace=wrap;html=1;" vertex="1" parent="kJwidPcrHj46GqBheQo3-35">
          <mxGeometry y="26" width="160" height="30" as="geometry" />
        </mxCell>
        <mxCell id="kJwidPcrHj46GqBheQo3-38" value="name&lt;br&gt;" style="text;strokeColor=none;fillColor=none;spacingLeft=4;spacingRight=4;overflow=hidden;rotatable=0;points=[[0,0.5],[1,0.5]];portConstraint=eastwest;fontSize=12;whiteSpace=wrap;html=1;" vertex="1" parent="kJwidPcrHj46GqBheQo3-35">
          <mxGeometry y="56" width="160" height="30" as="geometry" />
        </mxCell>
        <mxCell id="kJwidPcrHj46GqBheQo3-37" value="description" style="text;strokeColor=none;fillColor=none;spacingLeft=4;spacingRight=4;overflow=hidden;rotatable=0;points=[[0,0.5],[1,0.5]];portConstraint=eastwest;fontSize=12;whiteSpace=wrap;html=1;" vertex="1" parent="kJwidPcrHj46GqBheQo3-35">
          <mxGeometry y="86" width="160" height="30" as="geometry" />
        </mxCell>
        <mxCell id="kJwidPcrHj46GqBheQo3-39" value="desciption" style="text;strokeColor=none;fillColor=none;spacingLeft=4;spacingRight=4;overflow=hidden;rotatable=0;points=[[0,0.5],[1,0.5]];portConstraint=eastwest;fontSize=12;whiteSpace=wrap;html=1;" vertex="1" parent="kJwidPcrHj46GqBheQo3-35">
          <mxGeometry y="116" width="160" height="30" as="geometry" />
        </mxCell>
        <mxCell id="kJwidPcrHj46GqBheQo3-40" value="textblock_group" style="swimlane;fontStyle=0;childLayout=stackLayout;horizontal=1;startSize=26;horizontalStack=0;resizeParent=1;resizeParentMax=0;resizeLast=0;collapsible=1;marginBottom=0;align=center;fontSize=14;" vertex="1" parent="1">
          <mxGeometry x="320" y="439" width="160" height="146" as="geometry" />
        </mxCell>
        <mxCell id="kJwidPcrHj46GqBheQo3-41" value="id&amp;nbsp;" style="text;strokeColor=none;fillColor=none;spacingLeft=4;spacingRight=4;overflow=hidden;rotatable=0;points=[[0,0.5],[1,0.5]];portConstraint=eastwest;fontSize=12;whiteSpace=wrap;html=1;" vertex="1" parent="kJwidPcrHj46GqBheQo3-40">
          <mxGeometry y="26" width="160" height="30" as="geometry" />
        </mxCell>
        <mxCell id="kJwidPcrHj46GqBheQo3-42" value="name&lt;br&gt;" style="text;strokeColor=none;fillColor=none;spacingLeft=4;spacingRight=4;overflow=hidden;rotatable=0;points=[[0,0.5],[1,0.5]];portConstraint=eastwest;fontSize=12;whiteSpace=wrap;html=1;" vertex="1" parent="kJwidPcrHj46GqBheQo3-40">
          <mxGeometry y="56" width="160" height="30" as="geometry" />
        </mxCell>
        <mxCell id="kJwidPcrHj46GqBheQo3-43" value="description" style="text;strokeColor=none;fillColor=none;spacingLeft=4;spacingRight=4;overflow=hidden;rotatable=0;points=[[0,0.5],[1,0.5]];portConstraint=eastwest;fontSize=12;whiteSpace=wrap;html=1;" vertex="1" parent="kJwidPcrHj46GqBheQo3-40">
          <mxGeometry y="86" width="160" height="30" as="geometry" />
        </mxCell>
        <mxCell id="kJwidPcrHj46GqBheQo3-44" value="groupId" style="text;strokeColor=none;fillColor=none;spacingLeft=4;spacingRight=4;overflow=hidden;rotatable=0;points=[[0,0.5],[1,0.5]];portConstraint=eastwest;fontSize=12;whiteSpace=wrap;html=1;" vertex="1" parent="kJwidPcrHj46GqBheQo3-40">
          <mxGeometry y="116" width="160" height="30" as="geometry" />
        </mxCell>
        <mxCell id="kJwidPcrHj46GqBheQo3-49" value="" style="edgeStyle=elbowEdgeStyle;fontSize=12;html=1;endArrow=ERoneToMany;rounded=0;exitX=0;exitY=0.5;exitDx=0;exitDy=0;entryX=1;entryY=0.5;entryDx=0;entryDy=0;" edge="1" parent="1" source="kJwidPcrHj46GqBheQo3-28" target="kJwidPcrHj46GqBheQo3-24">
          <mxGeometry width="100" height="100" relative="1" as="geometry">
            <mxPoint x="620" y="700" as="sourcePoint" />
            <mxPoint x="720" y="600" as="targetPoint" />
            <Array as="points">
              <mxPoint x="500" y="770" />
            </Array>
          </mxGeometry>
        </mxCell>
        <mxCell id="kJwidPcrHj46GqBheQo3-50" value="" style="edgeStyle=entityRelationEdgeStyle;fontSize=12;html=1;endArrow=ERmandOne;startArrow=ERmandOne;rounded=0;entryX=1;entryY=0.5;entryDx=0;entryDy=0;exitX=1;exitY=0.5;exitDx=0;exitDy=0;" edge="1" parent="1" source="kJwidPcrHj46GqBheQo3-21" target="kJwidPcrHj46GqBheQo3-44">
          <mxGeometry width="100" height="100" relative="1" as="geometry">
            <mxPoint x="490" y="687" as="sourcePoint" />
            <mxPoint x="520" y="580" as="targetPoint" />
          </mxGeometry>
        </mxCell>
        <mxCell id="kJwidPcrHj46GqBheQo3-51" value="" style="edgeStyle=elbowEdgeStyle;fontSize=12;html=1;endArrow=ERmandOne;startArrow=ERmandOne;rounded=0;entryX=0;entryY=0.5;entryDx=0;entryDy=0;exitX=0;exitY=0.25;exitDx=0;exitDy=0;" edge="1" parent="1" source="kJwidPcrHj46GqBheQo3-25" target="kJwidPcrHj46GqBheQo3-39">
          <mxGeometry width="100" height="100" relative="1" as="geometry">
            <mxPoint x="710" y="676" as="sourcePoint" />
            <mxPoint x="870" y="580" as="targetPoint" />
            <Array as="points">
              <mxPoint x="540" y="630" />
            </Array>
          </mxGeometry>
        </mxCell>
        <mxCell id="kJwidPcrHj46GqBheQo3-106" value="login_admin" style="swimlane;fontStyle=0;childLayout=stackLayout;horizontal=1;startSize=26;horizontalStack=0;resizeParent=1;resizeParentMax=0;resizeLast=0;collapsible=1;marginBottom=0;align=center;fontSize=14;" vertex="1" parent="1">
          <mxGeometry x="80" y="260" width="160" height="120" as="geometry" />
        </mxCell>
        <mxCell id="kJwidPcrHj46GqBheQo3-107" value="id" style="text;strokeColor=none;fillColor=none;spacingLeft=4;spacingRight=4;overflow=hidden;rotatable=0;points=[[0,0.5],[1,0.5]];portConstraint=eastwest;fontSize=12;whiteSpace=wrap;html=1;" vertex="1" parent="kJwidPcrHj46GqBheQo3-106">
          <mxGeometry y="26" width="160" height="30" as="geometry" />
        </mxCell>
        <mxCell id="kJwidPcrHj46GqBheQo3-108" value="login&lt;br&gt;&lt;br&gt;pass&lt;br&gt;" style="text;strokeColor=none;fillColor=none;spacingLeft=4;spacingRight=4;overflow=hidden;rotatable=0;points=[[0,0.5],[1,0.5]];portConstraint=eastwest;fontSize=12;whiteSpace=wrap;html=1;" vertex="1" parent="kJwidPcrHj46GqBheQo3-106">
          <mxGeometry y="56" width="160" height="64" as="geometry" />
        </mxCell>
        <mxCell id="kJwidPcrHj46GqBheQo3-109" value="admin_panel" style="swimlane;fontStyle=0;childLayout=stackLayout;horizontal=1;startSize=26;horizontalStack=0;resizeParent=1;resizeParentMax=0;resizeLast=0;collapsible=1;marginBottom=0;align=center;fontSize=14;" vertex="1" parent="1">
          <mxGeometry x="320" y="260" width="160" height="90" as="geometry" />
        </mxCell>
        <mxCell id="kJwidPcrHj46GqBheQo3-111" value="Тут наверное сущности типа кнопок что чего включает, выключает" style="text;strokeColor=none;fillColor=none;spacingLeft=4;spacingRight=4;overflow=hidden;rotatable=0;points=[[0,0.5],[1,0.5]];portConstraint=eastwest;fontSize=12;whiteSpace=wrap;html=1;" vertex="1" parent="kJwidPcrHj46GqBheQo3-109">
          <mxGeometry y="26" width="160" height="64" as="geometry" />
        </mxCell>
        <mxCell id="kJwidPcrHj46GqBheQo3-112" value="Странички, редактирования, тоже в бд надо&lt;br&gt;" style="text;html=1;strokeColor=none;fillColor=none;align=center;verticalAlign=middle;whiteSpace=wrap;rounded=0;" vertex="1" parent="1">
          <mxGeometry x="120" y="156" width="60" height="30" as="geometry" />
        </mxCell>
        <mxCell id="kJwidPcrHj46GqBheQo3-113" value="&lt;span style=&quot;color: rgb(0, 0, 0); font-family: Helvetica; font-size: 12px; font-style: normal; font-variant-ligatures: normal; font-variant-caps: normal; font-weight: 400; letter-spacing: normal; orphans: 2; text-align: center; text-indent: 0px; text-transform: none; widows: 2; word-spacing: 0px; -webkit-text-stroke-width: 0px; background-color: rgb(251, 251, 251); text-decoration-thickness: initial; text-decoration-style: initial; text-decoration-color: initial; float: none; display: inline !important;&quot;&gt;Админ панель:&lt;br&gt;Редактировать всё что есть тут.&lt;br&gt;-скрывать/показывать блок оценок в группах/&amp;nbsp; дисциплинах.&lt;br&gt;-скрывать показывать сообщение для каждой группы/дисциплины&lt;br&gt;-загружать или удалять задания для дисциплины в виде pdf, docx.&lt;br&gt;&lt;br&gt;&lt;/span&gt;" style="text;whiteSpace=wrap;html=1;" vertex="1" parent="1">
          <mxGeometry x="310" y="110" width="280" height="70" as="geometry" />
        </mxCell>
        <mxCell id="kJwidPcrHj46GqBheQo3-122" value="task" style="swimlane;fontStyle=0;childLayout=stackLayout;horizontal=1;startSize=26;horizontalStack=0;resizeParent=1;resizeParentMax=0;resizeLast=0;collapsible=1;marginBottom=0;align=center;fontSize=14;" vertex="1" parent="1">
          <mxGeometry x="820" y="650" width="160" height="142" as="geometry" />
        </mxCell>
        <mxCell id="kJwidPcrHj46GqBheQo3-123" value="id" style="text;strokeColor=none;fillColor=none;spacingLeft=4;spacingRight=4;overflow=hidden;rotatable=0;points=[[0,0.5],[1,0.5]];portConstraint=eastwest;fontSize=12;whiteSpace=wrap;html=1;" vertex="1" parent="kJwidPcrHj46GqBheQo3-122">
          <mxGeometry y="26" width="160" height="30" as="geometry" />
        </mxCell>
        <mxCell id="kJwidPcrHj46GqBheQo3-124" value="description&lt;br&gt;&lt;br&gt;file&lt;br&gt;&lt;br&gt;discipline_id" style="text;strokeColor=none;fillColor=none;spacingLeft=4;spacingRight=4;overflow=hidden;rotatable=0;points=[[0,0.5],[1,0.5]];portConstraint=eastwest;fontSize=12;whiteSpace=wrap;html=1;" vertex="1" parent="kJwidPcrHj46GqBheQo3-122">
          <mxGeometry y="56" width="160" height="86" as="geometry" />
        </mxCell>
        <mxCell id="kJwidPcrHj46GqBheQo3-125" value="" style="edgeStyle=orthogonalEdgeStyle;fontSize=12;html=1;endArrow=ERoneToMany;rounded=0;exitX=1.016;exitY=-0.076;exitDx=0;exitDy=0;entryX=-0.003;entryY=0.184;entryDx=0;entryDy=0;entryPerimeter=0;exitPerimeter=0;" edge="1" parent="1" source="kJwidPcrHj46GqBheQo3-28" target="kJwidPcrHj46GqBheQo3-123">
          <mxGeometry width="100" height="100" relative="1" as="geometry">
            <mxPoint x="750" y="781" as="sourcePoint" />
            <mxPoint x="880" y="820" as="targetPoint" />
          </mxGeometry>
        </mxCell>
      </root>
    </mxGraphModel>
  </diagram>
</mxfile>
